<?xml version="1.0" encoding="utf-8"?>
<!-- Generator: Adobe Illustrator 19.2.1, SVG Export Plug-In . SVG Version: 6.00 Build 0)  -->
<svg version="1.1" id="Layer_1" xmlns="http://www.w3.org/2000/svg" xmlns:xlink="http://www.w3.org/1999/xlink" x="0px" y="0px"
	 width="20px" height="20px" viewBox="0 0 20 20" enable-background="new 0 0 20 20" xml:space="preserve">
<circle fill="#7F7F7F" cx="10" cy="10" r="10"/>
<g>
	<path fill="#F4F4F4" d="M8.58,12.421c0-0.377,0.023-0.705,0.068-0.984c0.045-0.279,0.119-0.534,0.223-0.765
		c0.104-0.231,0.238-0.45,0.402-0.657c0.165-0.207,0.366-0.427,0.605-0.661c0.181-0.175,0.349-0.341,0.506-0.498
		c0.157-0.157,0.295-0.317,0.414-0.482s0.214-0.34,0.283-0.526c0.069-0.186,0.104-0.393,0.104-0.621c0-0.499-0.123-0.88-0.37-1.143
		c-0.247-0.263-0.609-0.394-1.087-0.394c-0.191,0-0.377,0.027-0.558,0.08C8.989,5.824,8.827,5.909,8.683,6.026
		S8.425,6.291,8.337,6.472C8.249,6.652,8.205,6.87,8.205,7.125H6.27c0.005-0.499,0.097-0.939,0.275-1.318
		c0.178-0.38,0.422-0.698,0.733-0.956c0.311-0.258,0.674-0.451,1.091-0.581c0.417-0.13,0.869-0.195,1.358-0.195
		c0.536,0,1.014,0.069,1.434,0.207c0.419,0.138,0.775,0.34,1.067,0.605c0.292,0.265,0.515,0.589,0.666,0.972
		c0.151,0.382,0.226,0.815,0.226,1.298c0,0.35-0.056,0.677-0.167,0.98c-0.112,0.303-0.26,0.587-0.446,0.852
		c-0.186,0.265-0.398,0.52-0.637,0.765c-0.239,0.244-0.485,0.486-0.74,0.725c-0.292,0.265-0.487,0.556-0.585,0.872
		c-0.098,0.316-0.15,0.673-0.155,1.071H8.58z M8.444,14.898c0-0.149,0.024-0.287,0.072-0.414c0.048-0.127,0.118-0.239,0.211-0.335
		c0.093-0.096,0.207-0.17,0.342-0.223c0.135-0.053,0.291-0.08,0.466-0.08c0.175,0,0.331,0.027,0.466,0.08
		c0.135,0.053,0.25,0.127,0.342,0.223c0.093,0.096,0.165,0.207,0.215,0.335s0.076,0.265,0.076,0.414
		c0,0.292-0.096,0.536-0.287,0.733c-0.191,0.196-0.462,0.295-0.812,0.295c-0.35,0-0.62-0.098-0.808-0.295
		C8.539,15.435,8.444,15.19,8.444,14.898z"/>
</g>
</svg>
